<svg height="512" viewBox="0 0 64 64" width="512"
  xmlns="http://www.w3.org/2000/svg">
  <g id="Fill_Outline" data-name="Fill Outline">
    <g id="Color">
      <g>
        <rect fill="#aae1f9" height="46" rx="4" width="58" x="3" y="3"/>
        <path d="m25 3h-18a4 4 0 0 0 -4 4v38a4 4 0 0 0 4 4h50a4 4 0 0 0 4-4v-6z" fill="#57b7eb"/>
        <path d="m30 40a18 18 0 0 1 -18-18v-19h-5a4 4 0 0 0 -4 4v38a4 4 0 0 0 4 4h50a4 4 0 0 0 4-4v-5z" fill="#4891d3"/>
        <path d="m14 55h36a4 4 0 0 1 4 4v2a0 0 0 0 1 0 0h-44a0 0 0 0 1 0 0v-2a4 4 0 0 1 4-4z" fill="#f9e109"/>
        <path d="m46 55h-28l3-6h22z" fill="#fcbc04"/>
        <path d="m22 17.757-5.879-5.878 3.879-3.879h-12v12l3.879-3.879 5.878 5.879z" fill="#fcbc04"/>
        <path d="m42 17.757 5.879-5.878-3.879-3.879h12v12l-3.879-3.879-5.878 5.879z" fill="#f9e109"/>
        <path d="m22 34.243-5.879 5.878 3.879 3.879h-12v-12l3.879 3.879 5.878-5.879z" fill="#fcbc04"/>
        <path d="m42 34.243 5.879 5.878-3.879 3.879h12v-12l-3.879 3.879-5.878-5.879z" fill="#fcbc04"/>
        <g fill="#e59730">
          <path d="m8 20 3.879-3.879.121.122v-8.243h-4z"/>
          <path d="m8 32v12h12l-3.879-3.879 3.461-3.46a18.068 18.068 0 0 1 -4.243-4.243l-3.46 3.461z"/>
          <path d="m44 44h12v-4h-8.243l.122.121z"/>
          <path d="m18 55 3-6h22z"/>
        </g>
        <path d="m17 58a3 3 0 0 1 -3-3 4 4 0 0 0 -4 4v2h44v-2a3.977 3.977 0 0 0 -.141-1z" fill="#fcbc04"/>
        <path d="m56 34v-2l-1 1z" fill="#f9e109"/>
      </g>
    </g>
    <g id="Outline_copy" data-name="Outline copy">
      <g fill="#39519d">
        <path d="m20.924 7.617a1 1 0 0 0 -.924-.617h-12a1 1 0 0 0 -1 1v12a1 1 0 0 0 2 0v-11h8.586l-2.172 2.172a1 1 0 0 0 0 1.414l5.172 5.171-2.829 2.829-5.171-5.172a1 1 0 0 0 -1.414 1.414l5.878 5.879a1 1 0 0 0 1.414 0l4.243-4.243a1 1 0 0 0 0-1.414l-5.172-5.171 3.172-3.172a1 1 0 0 0 .217-1.09z"/>
        <path d="m41.293 18.464 4.242 4.243a1 1 0 0 0 1.414 0l5.172-5.172 3.172 3.172a1 1 0 0 0 1.707-.707v-12a1 1 0 0 0 -1-1h-12a1 1 0 0 0 -.707 1.707l3.172 3.172-5.172 5.171a1 1 0 0 0 0 1.414zm7.293-5.878a1 1 0 0 0 0-1.414l-2.172-2.172h8.586v8.586l-2.172-2.172a1 1 0 0 0 -1.414 0l-5.172 5.172-2.828-2.829z"/>
        <path d="m7 44a1 1 0 0 0 1 1h12a1 1 0 0 0 .707-1.707l-3.172-3.172 5.172-5.171a1 1 0 0 0 0-1.414l-4.243-4.243a1.029 1.029 0 0 0 -1.414 0l-5.171 5.172-3.172-3.172a1 1 0 0 0 -1.707.707zm2-9.586 2.172 2.172a1.029 1.029 0 0 0 1.414 0l5.171-5.172 2.829 2.829-5.172 5.171a1 1 0 0 0 0 1.414l2.172 2.172h-8.586z"/>
        <path d="m41.293 34.95 5.172 5.171-3.172 3.172a1 1 0 0 0 .707 1.707h12a1 1 0 0 0 1-1v-12a1 1 0 0 0 -2 0v11h-8.586l2.172-2.172a1 1 0 0 0 0-1.414l-5.172-5.171 2.828-2.829 5.172 5.172a1 1 0 0 0 1.414-1.414l-5.879-5.879a1.029 1.029 0 0 0 -1.414 0l-4.242 4.243a1 1 0 0 0 0 1.414z"/>
        <path d="m61 38a1 1 0 0 0 -1 1v6a3 3 0 0 1 -3 3h-50a3 3 0 0 1 -3-3v-30a1 1 0 0 0 -2 0v30a5.006 5.006 0 0 0 5 5h12.382l-2 4h-3.382a5.006 5.006 0 0 0 -5 5v2a1 1 0 0 0 1 1h30a1 1 0 0 0 0-2h-29v-1a3 3 0 0 1 3-3h36a3 3 0 0 1 3 3v1h-9a1 1 0 0 0 0 2h10a1 1 0 0 0 1-1v-2a5.006 5.006 0 0 0 -5-5h-3.382l-2-4h12.382a5.006 5.006 0 0 0 5-5v-6a1 1 0 0 0 -1-1zm-16.618 16h-24.764l2-4h20.764z"/>
        <path d="m57 2h-50a5.006 5.006 0 0 0 -5 5v4a1 1 0 0 0 2 0v-4a3 3 0 0 1 3-3h50a3 3 0 0 1 3 3v28a1 1 0 0 0 2 0v-28a5.006 5.006 0 0 0 -5-5z"/>
      </g>
    </g>
  </g>
</svg>