<svg id="Layer_1" height="512" viewBox="0 0 512 512" width="512" xmlns="http://www.w3.org/2000/svg" data-name="Layer 1"><path d="m323.34 42.17a21.454 21.454 0 0 0 -36.63 15.18v397.3a21.46 21.46 0 1 0 42.92 0v-397.3a21.369 21.369 0 0 0 -6.29-15.18z" fill="#68ddf8"/><path d="m153.98 136.06a21.468 21.468 0 0 0 -36.64 15.18v209.52a21.465 21.465 0 0 0 42.93.06v-209.65a21.389 21.389 0 0 0 -6.29-15.11z" fill="#68ddf8"/><path d="m286.71 72.67v365.97h-.4l-126.04-77.82v-209.65z" fill="#ed6e73"/><path d="m117.34 172.69v166.61h-76.98a12.872 12.872 0 0 1 -12.88-12.88v-140.85a12.878 12.878 0 0 1 12.88-12.88z" fill="#ed6e73"/><path d="m323.34 42.17a21.454 21.454 0 0 0 -36.63 15.18v40a21.46 21.46 0 1 1 42.92 0v-40a21.369 21.369 0 0 0 -6.29-15.18z" fill="#57bcee"/><path d="m153.98 136.06a21.468 21.468 0 0 0 -36.64 15.18v40a21.465 21.465 0 0 1 42.93-.07v-40a21.389 21.389 0 0 0 -6.29-15.11z" fill="#57bcee"/><path d="m160.27 151.17v40l126.44-78.5v-40z" fill="#eb565b"/><path d="m40.36 172.69a12.878 12.878 0 0 0 -12.88 12.88v40a12.878 12.878 0 0 1 12.88-12.88h76.98v-40z" fill="#eb565b"/><path d="m330.78 211.47a44.53 44.53 0 1 1 0 89.06h-1.15v-89.06z" fill="#ed6e73"/><g fill="#284268"><path d="m336 205.737v-148.391a27.526 27.526 0 0 0 -28.39-27.446c-14.934.473-26.61 13.129-26.61 28.072v11.176l-116.523 72.352a27.663 27.663 0 0 0 -53.477 9.737v15.763h-70.645c-10.409 0-19.355 8.162-19.355 18.57v140.855c0 10.408 8.946 18.575 19.355 18.575h70.645v15.763a27.611 27.611 0 0 0 53.4 9.716l116.6 71.935v11.614c0 14.943 11.676 27.6 26.61 28.074a27.526 27.526 0 0 0 28.39-27.448v-148.391a50.533 50.533 0 0 0 0-100.526zm-225 127.263h-70.645c-3.792 0-7.355-2.783-7.355-6.575v-140.855c0-3.792 3.563-6.57 7.355-6.57h70.645zm43 27.763a15.5 15.5 0 0 1 -31 0v-209.526a15.5 15.5 0 0 1 31 0zm170 93.4c0 8.316-6.359 15.493-14.663 15.933a15.511 15.511 0 0 1 -16.337-15.442v-287.654a6 6 0 0 0 -12 0v261.31l-115-70.835v-202.964l115-71.238v43.727a6 6 0 0 0 12 0v-69.161c0-8.316 6.358-15.492 14.662-15.933a15.514 15.514 0 0 1 16.338 15.44zm12-159.991v-76.341a38.523 38.523 0 0 1 0 76.338z"/><path d="m52 272.362a6 6 0 0 0 6-6v-40.614a6 6 0 0 0 -12 0v40.614a6 6 0 0 0 6 6z"/><path d="m52 209.362a6 6 0 0 0 6-6v-5.614a6 6 0 0 0 -12 0v5.614a6 6 0 0 0 6 6z"/><path d="m405.365 198.2a6 6 0 0 0 0 8.486 69.584 69.584 0 0 1 0 98.294 6 6 0 0 0 8.487 8.485 81.6 81.6 0 0 0 0-115.265 6 6 0 0 0 -8.487 0z"/><path d="m442.651 160.911a6 6 0 0 0 0 8.485 122.485 122.485 0 0 1 0 173.208 6 6 0 1 0 8.485 8.485 134.484 134.484 0 0 0 0-190.178 6 6 0 0 0 -8.485 0z"/></g></svg>