<svg height="512" viewBox="0 0 64 64" width="512"
  xmlns="http://www.w3.org/2000/svg">
  <g id="computer_template" data-name="computer template">
    <path d="m59 15h-54a2 2 0 0 0 -2 2v28h58v-28a2 2 0 0 0 -2-2z" fill="#57a4ff"/>
    <path d="m61 45v4a2.006 2.006 0 0 1 -2 2h-54a2.006 2.006 0 0 1 -2-2v-4z" fill="#e0e0e2"/>
    <path d="m43 57 3 4h-28l3-4h4 14z" fill="#e0e0e2"/>
    <path d="m38 51 1 6h-14l1-6z" fill="#57a4ff"/>
    <path d="m61 17v28h-5v-28a2.006 2.006 0 0 0 -2-2h5a2.006 2.006 0 0 1 2 2z" fill="#2488ff"/>
    <path d="m61 45v4a2.006 2.006 0 0 1 -2 2h-5a2.006 2.006 0 0 0 2-2v-4z" fill="#c6c5ca"/>
    <path d="m46 61h-5l-3-4h5z" fill="#c6c5ca"/>
    <path d="m39 57h-5l-1-6h5z" fill="#2488ff"/>
    <path d="m53 37h4v4h-4z" fill="#898890"/>
    <path d="m52 23h5v10h-5z" fill="#00e7f0"/>
    <path d="m53.21 13.86-1.14 1.14-2.39 2.39-7.07-7.07 3.53-3.53z" fill="#00e7f0"/>
    <path d="m47 23h5v10h-5z" fill="#ff3051"/>
    <path d="m41.872 10.626h5.006v9.998h-5.006z" fill="#ff3051" transform="matrix(.707 -.707 .707 .707 1.949 35.954)"/>
    <path d="m45 37h4v4h-4z" fill="#00e7f0"/>
    <path d="m47 23v10h-5v-7.93l.61-.61 1.46-1.46z" fill="#ff7956"/>
    <path d="m46.14 20.93-2.07 2.07-1.46 1.46-.61-.61-.85-.85-4.15-4.15v-.85-2.07l2.07-2.07z" fill="#ff7956"/>
    <path d="m42.61 24.46-.61.61-2.93 2.93-2.07-2.07-2.93-2.93h2.93v-4.15l4.15 4.15.85.85z" fill="#ffde55"/>
    <path d="m42 25.07v7.93h-5v-7.07l2.07 2.07z" fill="#ffde55"/>
    <path d="m37 37h4v4h-4z" fill="#ff3051"/>
    <path d="m37 18.85v4.15h-2.93-4.14l2.07-2.07-2.93-2.93h5.86 1.22.85z" fill="#ffde55"/>
    <path d="m37 15.93v2.07h-.85-1.22-5.86l-.61-.61-1.46-1.46v-2.93h10z" fill="#ff7956"/>
    <path d="m27 8h10v5h-10z" fill="#ff3051"/>
    <path d="m27 3h10v5h-10z" fill="#00e7f0"/>
    <path d="m32 20.93-2.07 2.07-2.93 2.93v-2.93h-4.15l4.15-4.15.85-.85.61-.61.61.61z" fill="#ffde55"/>
    <path d="m28.46 17.39-.61.61-.85.85-4.15 4.15h-.85-2.07l-2.07-2.07 7.07-7.07 2.07 2.07z" fill="#ff7956"/>
    <path d="m23 37h4v4h-4z" fill="#ff7956"/>
    <path d="m27 25.93v7.07h-5v-10h.85 4.15z" fill="#ffde55"/>
    <path d="m14.626 13.122h9.998v5.006h-9.998z" fill="#ff3051" transform="matrix(.707 -.707 .707 .707 -5.301 18.453)"/>
    <path d="m22 23v10h-5v-10h2.93z" fill="#ff7956"/>
    <path d="m21.39 10.32-7.07 7.07-2.39-2.39-1.14-1.14 7.07-7.07z" fill="#00e7f0"/>
    <path d="m15 37h4v4h-4z" fill="#ffde55"/>
    <path d="m12 23h5v10h-5z" fill="#ff3051"/>
    <path d="m7 23h5v10h-5z" fill="#00e7f0"/>
    <path d="m7 37h4v4h-4z" fill="#e0e0e2"/>
    <path d="m59 14h-4.82a.968.968 0 0 0 -.26-.85l-7.07-7.07a1.008 1.008 0 0 0 -1.42 0l-7.43 7.44v-10.52a1 1 0 0 0 -1-1h-10a1 1 0 0 0 -1 1v10.52l-7.43-7.44a1.008 1.008 0 0 0 -1.42 0l-7.07 7.07a.968.968 0 0 0 -.26.85h-4.82a3.009 3.009 0 0 0 -3 3v32a3.009 3.009 0 0 0 3 3h19.82l-.67 4h-3.15a1.014 1.014 0 0 0 -.8.4l-3 4a1 1 0 0 0 -.09 1.05.977.977 0 0 0 .89.55h28a.977.977 0 0 0 .89-.55 1 1 0 0 0 -.09-1.05l-3-4a1.014 1.014 0 0 0 -.8-.4h-3.15l-.67-4h19.82a3.009 3.009 0 0 0 3-3v-32a3.009 3.009 0 0 0 -3-3zm-12.86-5.8 5.66 5.66-2.12 2.12-5.66-5.66zm-3.53 3.54 5.65 5.65-2.12 2.12-5.65-5.65zm-4.61 4.6 1.07-1.07 5.66 5.66-2.12 2.12-4.61-4.61zm8 7.66v8h-3v-6.52l1.48-1.48zm-9 0a1 1 0 0 0 1-1v-1.74l3.2 3.2-2.13 2.13-2.59-2.59zm4 3.48v4.52h-3v-3.66l.36.37a1.014 1.014 0 0 0 1.42 0zm-13-23.48h8v3h-8zm0 5h8v3h-8zm0 5h8v3h-6.52l-1.48-1.48zm4.71 6.22-1.23-1.22h4.52v3h-3.66l.37-.36a1.008 1.008 0 0 0 0-1.42zm-5.71 1.78h-1.74l3.2-3.2 2.13 2.13-2.59 2.59v-.52a1 1 0 0 0 -1-1zm-1 2v8h-3v-8zm1.05-6.61-4.61 4.61h-2.1l-1.07-1.07 5.66-5.66zm-6.05 6.61v8h-3v-8zm2.51-10.14-5.65 5.65-2.12-2.12 5.65-5.65zm-5.65-5.66 2.12 2.12-5.66 5.66-2.12-2.12zm24.64 49.8 1.5 2h-24l1.5-2zm-16.32-2 .67-4h10.3l.67 4zm33.82-7a1 1 0 0 1 -1 1h-54a1 1 0 0 1 -1-1v-3h56zm0-5h-56v-27a1 1 0 0 1 1-1h6.52l6 6h-10.52a1 1 0 0 0 -1 1v10a1 1 0 0 0 1 1h20a1 1 0 0 0 1-1v-6.66l2.34-2.34h3.32l2.34 2.34v6.66a1 1 0 0 0 1 1h20a1 1 0 0 0 1-1v-10a1 1 0 0 0 -1-1h-10.52l6-6h6.52a1 1 0 0 1 1 1zm-44-20v8h-3v-8zm-5 0v8h-3v-8zm37 8v-8h3v8zm5 0v-8h3v8z"/>
    <path d="m7 42h4a1 1 0 0 0 1-1v-4a1 1 0 0 0 -1-1h-4a1 1 0 0 0 -1 1v4a1 1 0 0 0 1 1zm1-4h2v2h-2z"/>
    <path d="m15 42h4a1 1 0 0 0 1-1v-4a1 1 0 0 0 -1-1h-4a1 1 0 0 0 -1 1v4a1 1 0 0 0 1 1zm1-4h2v2h-2z"/>
    <path d="m23 42h4a1 1 0 0 0 1-1v-4a1 1 0 0 0 -1-1h-4a1 1 0 0 0 -1 1v4a1 1 0 0 0 1 1zm1-4h2v2h-2z"/>
    <path d="m37 42h4a1 1 0 0 0 1-1v-4a1 1 0 0 0 -1-1h-4a1 1 0 0 0 -1 1v4a1 1 0 0 0 1 1zm1-4h2v2h-2z"/>
    <path d="m45 42h4a1 1 0 0 0 1-1v-4a1 1 0 0 0 -1-1h-4a1 1 0 0 0 -1 1v4a1 1 0 0 0 1 1zm1-4h2v2h-2z"/>
    <path d="m53 42h4a1 1 0 0 0 1-1v-4a1 1 0 0 0 -1-1h-4a1 1 0 0 0 -1 1v4a1 1 0 0 0 1 1zm1-4h2v2h-2z"/>
    <path d="m30 38h4v2h-4z"/>
  </g>
</svg>